# xmcd CD database file
#
# Track frame offsets:
#	150
#	14119
#	28993
#	43236
#	73270
#
# Disc length: 1200 seconds
#
# Revision: 0
# Processed by: cddbd v1.5.2PL0 Copyright (c) Steve Scherf et al.
# Submitted via: CDex 1.51
#
DISCID=4c04ae05
DTITLE=Phoenix - Long Distance Call [CD Single)
DYEAR=2006
DGENRE=French House
TTITLE0=Long Distance Call
TTITLE1=Rally
TTITLE2=Long Distance Call (Sebastien Tellier Remix)
TTITLE3=Long Distance Call (25Hrs A Day Remix)
TTITLE4=Long Distance Call (Video)
EXTD=YEAR: 2006
EXTT0=
EXTT1=
EXTT2=
EXTT3=
EXTT4=
PLAYORDER=
